<svg width="16" height="16" viewBox="0 0 16 16" fill="none" xmlns="http://www.w3.org/2000/svg">
<path d="M8.00016 1.33334C4.32683 1.33334 1.3335 4.32668 1.3335 8.00001C1.3335 11.6733 4.32683 14.6667 8.00016 14.6667C11.6735 14.6667 14.6668 11.6733 14.6668 8.00001C14.6668 4.32668 11.6735 1.33334 8.00016 1.33334ZM10.7068 7.51334L8.3535 9.86668C8.2535 9.96668 8.12683 10.0133 8.00016 10.0133C7.8735 10.0133 7.74683 9.96668 7.64683 9.86668L5.2935 7.51334C5.10016 7.32001 5.10016 7.00001 5.2935 6.80668C5.48683 6.61334 5.80683 6.61334 6.00016 6.80668L8.00016 8.80668L10.0002 6.80668C10.1935 6.61334 10.5135 6.61334 10.7068 6.80668C10.9002 7.00001 10.9002 7.31334 10.7068 7.51334Z" fill="#BD9B74"/>
</svg>
