<svg width="16" height="16" viewBox="0 0 16 16" fill="none" xmlns="http://www.w3.org/2000/svg">
<path d="M11.9999 3.99999C11.5933 3.99999 11.2199 3.76666 11.0333 3.40666L10.5533 2.44C10.2466 1.83333 9.44662 1.33333 8.76662 1.33333H7.23995C6.55328 1.33333 5.75328 1.83333 5.44662 2.44L4.96662 3.40666C4.77995 3.76666 4.40662 3.99999 3.99995 3.99999C2.55328 3.99999 1.40662 5.21999 1.49995 6.65999L1.84662 12.1667C1.92662 13.54 2.66662 14.6667 4.50662 14.6667H11.4933C13.3333 14.6667 14.0666 13.54 14.1533 12.1667L14.4999 6.65999C14.5933 5.21999 13.4466 3.99999 11.9999 3.99999ZM6.99995 4.83333H8.99995C9.27328 4.83333 9.49995 5.06 9.49995 5.33333C9.49995 5.60666 9.27328 5.83333 8.99995 5.83333H6.99995C6.72662 5.83333 6.49995 5.60666 6.49995 5.33333C6.49995 5.06 6.72662 4.83333 6.99995 4.83333ZM7.99995 12.08C6.75995 12.08 5.74662 11.0733 5.74662 9.82666C5.74662 8.57999 6.75328 7.57333 7.99995 7.57333C9.24662 7.57333 10.2533 8.57999 10.2533 9.82666C10.2533 11.0733 9.23995 12.08 7.99995 12.08Z" fill="white"/>
</svg>
