<svg width="16" height="16" viewBox="0 0 16 16" fill="none" xmlns="http://www.w3.org/2000/svg">
<path d="M1.72003 12.6733L1.7067 12.6867C1.5267 12.2933 1.41337 11.8467 1.3667 11.3533C1.41337 11.84 1.54003 12.28 1.72003 12.6733Z" fill="#BD9B74"/>
<path d="M6.00024 6.92001C6.87653 6.92001 7.58691 6.20963 7.58691 5.33334C7.58691 4.45705 6.87653 3.74667 6.00024 3.74667C5.12395 3.74667 4.41357 4.45705 4.41357 5.33334C4.41357 6.20963 5.12395 6.92001 6.00024 6.92001Z" fill="#BD9B74"/>
<path d="M10.7935 1.33333H5.20683C2.78016 1.33333 1.3335 2.77999 1.3335 5.20666V10.7933C1.3335 11.52 1.46016 12.1533 1.70683 12.6867C2.28016 13.9533 3.50683 14.6667 5.20683 14.6667H10.7935C13.2202 14.6667 14.6668 13.22 14.6668 10.7933V9.26666V5.20666C14.6668 2.77999 13.2202 1.33333 10.7935 1.33333ZM13.5802 8.33333C13.0602 7.88666 12.2202 7.88666 11.7002 8.33333L8.92683 10.7133C8.40683 11.16 7.56683 11.16 7.04683 10.7133L6.82016 10.5267C6.34683 10.1133 5.5935 10.0733 5.06016 10.4333L2.56683 12.1067C2.42016 11.7333 2.3335 11.3 2.3335 10.7933V5.20666C2.3335 3.32666 3.32683 2.33333 5.20683 2.33333H10.7935C12.6735 2.33333 13.6668 3.32666 13.6668 5.20666V8.40666L13.5802 8.33333Z" fill="#BD9B74"/>
</svg>
