<svg width="55" height="50" viewBox="0 0 55 50" fill="none" xmlns="http://www.w3.org/2000/svg">
<path d="M49.5 0C50.9587 0 52.3576 0.585316 53.3891 1.62718C54.4205 2.66905 55 4.08213 55 5.55556V44.4444C55 45.9179 54.4205 47.3309 53.3891 48.3728C52.3576 49.4147 50.9587 50 49.5 50H5.5C4.04131 50 2.64236 49.4147 1.61091 48.3728C0.579462 47.3309 0 45.9179 0 44.4444V5.55556C0 4.08213 0.579462 2.66905 1.61091 1.62718C2.64236 0.585316 4.04131 0 5.5 0H49.5ZM49.5 5.55556H5.5V33.6111L19.2362 19.7389C19.5555 19.4164 19.9345 19.1605 20.3516 18.986C20.7687 18.8114 21.2158 18.7216 21.6672 18.7216C22.1187 18.7216 22.5658 18.8114 22.9829 18.986C23.4 19.1605 23.779 19.4164 24.0982 19.7389L35.277 31.0333L38.6815 27.5944C39.0007 27.2719 39.3797 27.0161 39.7968 26.8415C40.2139 26.667 40.661 26.5771 41.1125 26.5771C41.564 26.5771 42.0111 26.667 42.4282 26.8415C42.8453 27.0161 43.2243 27.2719 43.5435 27.5944L49.5 33.6139V5.55556ZM37.125 11.1111C38.219 11.1111 39.2682 11.5501 40.0418 12.3315C40.8154 13.1129 41.25 14.1727 41.25 15.2778C41.25 16.3828 40.8154 17.4427 40.0418 18.2241C39.2682 19.0055 38.219 19.4444 37.125 19.4444C36.031 19.4444 34.9818 19.0055 34.2082 18.2241C33.4346 17.4427 33 16.3828 33 15.2778C33 14.1727 33.4346 13.1129 34.2082 12.3315C34.9818 11.5501 36.031 11.1111 37.125 11.1111Z" fill="#282828" fill-opacity="0.2"/>
</svg>
