<svg width="24" height="24" viewBox="0 0 24 24" fill="none" xmlns="http://www.w3.org/2000/svg">
<g clip-path="url(#clip0_747_2909)">
<path d="M12 16C13.1046 16 14 15.1046 14 14C14 12.8954 13.1046 12 12 12C10.8954 12 10 12.8954 10 14C10 15.1046 10.8954 16 12 16Z" fill="white"/>
<path d="M22.536 4.122L19.878 1.464C19.612 1.2022 19.3175 0.971109 19 0.774984V3C18.9967 5.76005 16.76 7.99669 14 8.00002H9.99998C7.23994 7.99669 5.0033 5.76005 5.00002 3V0C2.23997 0.00332812 0.00332812 2.23997 0 5.00002V19C0.00332812 21.7601 2.23997 23.9967 5.00002 24H19C21.76 23.9967 23.9967 21.7601 24 19V7.65703C24.0037 6.33042 23.4765 5.05748 22.536 4.122ZM12 18C9.79088 18 8.00002 16.2091 8.00002 14C8.00002 11.7909 9.79088 10 12 10C14.2091 10 16 11.7909 16 14C16 16.2091 14.2091 18 12 18Z" fill="white"/>
<path d="M10 6.00001H14C15.6568 6.00001 17 4.65686 17 3.00001V0.0640454C16.7826 0.0286079 16.5631 0.00723291 16.343 6.10352e-05H7V3.00006C7 4.65686 8.34315 6.00001 10 6.00001Z" fill="white"/>
</g>
<defs>
<clipPath id="clip0_747_2909">
<rect width="24" height="24" fill="white"/>
</clipPath>
</defs>
</svg>
