<svg width="327" height="327" viewBox="0 0 327 327" fill="none" xmlns="http://www.w3.org/2000/svg">
<path d="M27.25 122.625V88.5625C27.25 54.6362 54.6362 27.25 88.5625 27.25H122.625" stroke="white" stroke-width="1.5" stroke-linecap="round" stroke-linejoin="round"/>
<path d="M204.375 27.25H238.438C272.364 27.25 299.75 54.6362 299.75 88.5625V122.625" stroke="white" stroke-width="1.5" stroke-linecap="round" stroke-linejoin="round"/>
<path d="M299.75 218V238.438C299.75 272.364 272.364 299.75 238.438 299.75H218" stroke="white" stroke-width="1.5" stroke-linecap="round" stroke-linejoin="round"/>
<path d="M122.625 299.75H88.5625C54.6362 299.75 27.25 272.364 27.25 238.438V204.375" stroke="white" stroke-width="1.5" stroke-linecap="round" stroke-linejoin="round"/>
<path d="M231.625 129.438V197.562C231.625 224.812 218 238.438 190.75 238.438H136.25C109 238.438 95.375 224.812 95.375 197.562V129.438C95.375 102.188 109 88.5625 136.25 88.5625H190.75C218 88.5625 231.625 102.188 231.625 129.438Z" stroke="white" stroke-width="1.5" stroke-linecap="round" stroke-linejoin="round"/>
<path d="M258.875 163.5H68.125" stroke="white" stroke-width="1.5" stroke-linecap="round" stroke-linejoin="round"/>
</svg>
