<svg width="16" height="16" viewBox="0 0 16 16" fill="none" xmlns="http://www.w3.org/2000/svg">
<g clip-path="url(#clip0_724_1617)">
<path d="M15.8046 3.52893L12.4712 0.195595C12.3455 0.0741559 12.1771 0.00695962 12.0023 0.00847857C11.8275 0.00999752 11.6603 0.0801101 11.5367 0.203716C11.4131 0.327321 11.343 0.494529 11.3414 0.669327C11.3399 0.844125 11.4071 1.01253 11.5286 1.13826L12.7239 2.33359L11.0739 3.98359C10.548 3.60028 9.92135 3.37929 9.27133 3.3479C8.6213 3.3165 7.9763 3.47607 7.41589 3.80693L9.13789 5.52893C9.20156 5.59043 9.25235 5.66399 9.28729 5.74533C9.32223 5.82666 9.34062 5.91414 9.34139 6.00266C9.34216 6.09118 9.32529 6.17897 9.29177 6.2609C9.25825 6.34283 9.20875 6.41726 9.14615 6.47986C9.08356 6.54245 9.00912 6.59196 8.92719 6.62548C8.84526 6.659 8.75748 6.67586 8.66896 6.6751C8.58044 6.67433 8.49296 6.65594 8.41162 6.621C8.33029 6.58606 8.25672 6.53527 8.19522 6.47159L6.39056 4.66693L5.33322 5.72426L7.13789 7.52893C7.20156 7.59043 7.25235 7.66399 7.28729 7.74533C7.32223 7.82666 7.34062 7.91414 7.34139 8.00266C7.34216 8.09118 7.32529 8.17897 7.29177 8.2609C7.25825 8.34283 7.20875 8.41726 7.14615 8.47986C7.08356 8.54245 7.00913 8.59196 6.92719 8.62548C6.84526 8.659 6.75748 8.67587 6.66896 8.6751C6.58044 8.67433 6.49296 8.65594 6.41162 8.621C6.33029 8.58606 6.25672 8.53527 6.19522 8.47159L4.39056 6.66693L3.33322 7.72559L5.13656 9.52893C5.20023 9.59043 5.25102 9.66399 5.28596 9.74533C5.3209 9.82666 5.33929 9.91414 5.34006 10.0027C5.34083 10.0912 5.32396 10.179 5.29044 10.2609C5.25692 10.3428 5.20742 10.4173 5.14482 10.4799C5.08223 10.5425 5.00779 10.592 4.92586 10.6255C4.84393 10.659 4.75614 10.6759 4.66762 10.6751C4.5791 10.6743 4.49162 10.6559 4.41029 10.621C4.32895 10.5861 4.25539 10.5353 4.19389 10.4716L2.53722 8.81359C2.18296 9.48435 1.99846 10.2317 1.99989 10.9903V13.0569L0.195225 14.8623C0.131551 14.9238 0.0807631 14.9973 0.0458238 15.0787C0.0108844 15.16 -0.0075064 15.2475 -0.00827561 15.336C-0.00904482 15.4245 0.00782299 15.5123 0.0413436 15.5942C0.0748642 15.6762 0.124366 15.7506 0.186961 15.8132C0.249557 15.8758 0.323991 15.9253 0.405922 15.9588C0.487853 15.9923 0.575639 16.0092 0.664159 16.0084C0.752678 16.0077 0.840158 15.9893 0.921494 15.9543C1.00283 15.9194 1.07639 15.8686 1.13789 15.8049L2.94256 14.0003H5.00922C5.62221 14.0019 6.22944 13.882 6.79577 13.6474C7.36209 13.4128 7.87628 13.0682 8.30856 12.6336L11.6899 9.25226C12.2498 8.68909 12.59 7.94429 12.6489 7.15233C12.7078 6.36036 12.4816 5.57343 12.0112 4.93359L13.6666 3.27626L14.8619 4.47159C14.9876 4.59303 15.156 4.66023 15.3308 4.65871C15.5056 4.65719 15.6728 4.58708 15.7964 4.46347C15.92 4.33987 15.9902 4.17266 15.9917 3.99786C15.9932 3.82306 15.926 3.65466 15.8046 3.52893Z" fill="#825D46"/>
</g>
<defs>
<clipPath id="clip0_724_1617">
<rect width="16" height="16" fill="white"/>
</clipPath>
</defs>
</svg>
